<?xml version="1.0" encoding="iso-8859-1"?>
<!-- Generator: Adobe Illustrator 18.0.0, SVG Export Plug-In . SVG Version: 6.00 Build 0)  -->
<!DOCTYPE svg PUBLIC "-//W3C//DTD SVG 1.1//EN" "http://www.w3.org/Graphics/SVG/1.1/DTD/svg11.dtd">
<svg xmlns="http://www.w3.org/2000/svg" xmlns:xlink="http://www.w3.org/1999/xlink" version="1.1" id="Capa_1" x="0px" y="0px" viewBox="0 0 425.131 425.131" style="enable-background:new 0 0 425.131 425.131;" xml:space="preserve" width="512px" height="512px">
<g>
	<g>
		<g>
			<path d="M373.652,219.551c-8.727,0-15.826-7.101-15.826-15.828c0-8.728,7.1-15.828,15.826-15.828     c8.728,0,15.828,7.101,15.828,15.828C389.48,212.45,382.38,219.551,373.652,219.551z M373.652,196.895     c-3.764,0-6.826,3.063-6.826,6.828c0,3.765,3.062,6.828,6.826,6.828c3.765,0,6.828-3.064,6.828-6.828     C380.48,199.958,377.417,196.895,373.652,196.895z" fill="#7b95a8"/>
		</g>
		<g>
			<path d="M51.702,219.551c-8.727,0-15.828-7.101-15.828-15.828c0-8.728,7.1-15.828,15.828-15.828     c8.727,0,15.826,7.101,15.826,15.828C67.528,212.45,60.429,219.551,51.702,219.551z M51.702,196.895     c-3.765,0-6.828,3.063-6.828,6.828c0,3.765,3.063,6.828,6.828,6.828c3.764,0,6.826-3.064,6.826-6.828     C58.528,199.958,55.466,196.895,51.702,196.895z" fill="#7b95a8"/>
		</g>
	</g>
	<g>
		<path d="M212.565,208.223c-8.727,0-15.827-7.101-15.827-15.828c0-8.727,7.1-15.826,15.827-15.826s15.827,7.1,15.827,15.826    C228.392,201.122,221.292,208.223,212.565,208.223z M212.565,185.568c-3.764,0-6.827,3.063-6.827,6.826    c0,3.765,3.063,6.828,6.827,6.828s6.827-3.064,6.827-6.828C219.392,188.631,216.33,185.568,212.565,185.568z" fill="#7b95a8"/>
	</g>
	<g>
		<g>
			<path d="M279.07,131.883h-133.01c-2.485,0-4.5-2.015-4.5-4.5V45.117c0-2.485,2.015-4.5,4.5-4.5h133.01c2.485,0,4.5,2.015,4.5,4.5     v82.266C283.57,129.868,281.556,131.883,279.07,131.883z M150.561,122.883h124.01V49.617h-124.01V122.883z" fill="#7b95a8"/>
		</g>
	</g>
	<path d="M420.631,164.24h-88.335c0.006-0.099,0-0.192,0-0.293c0-7.864-6.397-14.262-14.261-14.262h-6.934   c-7.864,0-14.262,6.397-14.262,14.262c0,0.101-0.006,0.194,0,0.293h-16.761v-10.057c0-2.485-2.015-4.5-4.5-4.5h-46.381v-4.973   h63.934c2.485,0,4.5-2.015,4.5-4.5V32.289c0-2.485-2.015-4.5-4.5-4.5h-161.13c-2.485,0-4.5,2.015-4.5,4.5v107.922   c0,2.485,2.015,4.5,4.5,4.5h63.934v4.973h-46.38c-2.485,0-4.5,2.015-4.5,4.5v10.057H66.682l3.4-34.095   c0.126-1.265-0.289-2.523-1.142-3.466c-0.853-0.942-2.065-1.48-3.336-1.48h-6.611L65.974,93.3c0.531-2.428-1.006-4.826-3.434-5.357   c-2.427-0.531-4.826,1.006-5.358,3.434l-7.401,33.823h-7.607l-5.068-25.063c-0.493-2.438-2.868-4.008-5.303-3.52   c-2.436,0.493-4.011,2.867-3.519,5.303l4.708,23.28h-5.542c-1.271,0-2.483,0.538-3.336,1.48c-0.853,0.941-1.268,2.201-1.142,3.466   l3.399,34.095H4.5c-2.485,0-4.5,2.015-4.5,4.5v69.965c0,2.485,2.015,4.5,4.5,4.5h3.542c1.617,5.061,4.629,14.481,4.663,14.564   c-2.172,4.801-4.428,13.564-3.766,28.861c0.627,14.507,6.346,105.576,6.404,106.494c0.149,2.371,2.116,4.218,4.491,4.218h15.231   c2.375,0,4.342-1.847,4.491-4.218c0.058-0.918,5.776-91.987,6.405-106.494c0.662-15.295-1.594-24.058-3.766-28.859   c0.034-0.082,3.046-9.507,4.664-14.565h52.681c2.485,0,4.5-2.015,4.5-4.5v-18.139h217.052v18.139c0,2.485,2.015,4.5,4.5,4.5h52.901   c0,0,4.621,14.452,4.667,14.565c-2.172,4.801-4.428,13.563-3.766,28.86c0.627,14.507,6.346,105.576,6.403,106.494   c0.149,2.371,2.116,4.218,4.491,4.218h15.232c2.376,0,4.342-1.847,4.491-4.218c0.058-0.918,5.776-91.987,6.405-106.494   c0.662-15.295-1.595-24.059-3.767-28.859c0.046-0.113,4.667-14.565,4.667-14.565h3.314c2.485,0,4.5-2.015,4.5-4.5V168.74   C425.131,166.255,423.116,164.24,420.631,164.24z M60.633,134.199l-2.996,30.041H35.415l-2.995-30.041H60.633z M36.97,286.241   c-0.547,12.623-4.993,83.911-6.131,102.101H24.06c-1.138-18.189-5.584-89.477-6.13-102.101c-0.679-15.69,2.015-22.968,3.447-25.675   h12.145C34.954,263.272,37.649,270.551,36.97,286.241z M34.755,251.566H20.145l-2.662-8.361h19.935L34.755,251.566z    M95.039,234.205H9V173.24h86.039V234.205z M136.501,36.789h152.13v98.922h-152.13V36.789z M204.934,144.711h15.263v4.973h-15.263   V144.711z M154.054,158.684h117.024v5.557H154.054V158.684z M321.092,211.566H104.039V173.24h217.053V211.566z M305.81,164.24   c0.006-0.099,0-0.192,0-0.293c0-2.901,2.39-5.262,5.291-5.262h6.934c2.901,0,5.261,2.36,5.261,5.262c0,0.101-0.006,0.194,0,0.293   H305.81z M407.425,286.24c-0.547,12.623-4.993,83.912-6.132,102.102h-6.778c-1.139-18.189-5.585-89.477-6.13-102.101   c-0.679-15.69,2.015-22.968,3.447-25.675h12.145C405.408,263.272,408.103,270.551,407.425,286.24z M405.21,251.566h-14.611   l-2.661-8.361h19.934L405.21,251.566z M416.131,234.205h-86.039l0-60.965h86.039V234.205z" fill="#7b95a8"/>
</g>
<g>
</g>
<g>
</g>
<g>
</g>
<g>
</g>
<g>
</g>
<g>
</g>
<g>
</g>
<g>
</g>
<g>
</g>
<g>
</g>
<g>
</g>
<g>
</g>
<g>
</g>
<g>
</g>
<g>
</g>
</svg>
