<?xml version="1.0" encoding="iso-8859-1"?>
<!-- Generator: Adobe Illustrator 18.0.0, SVG Export Plug-In . SVG Version: 6.00 Build 0)  -->
<!DOCTYPE svg PUBLIC "-//W3C//DTD SVG 1.1//EN" "http://www.w3.org/Graphics/SVG/1.1/DTD/svg11.dtd">
<svg version="1.1" id="Capa_1" xmlns="http://www.w3.org/2000/svg" xmlns:xlink="http://www.w3.org/1999/xlink" x="0px" y="0px"
	 viewBox="0 0 410 410" style="enable-background:new 0 0 410 410;" xml:space="preserve">
<g>
	<path style="fill:#26A3BF;" d="M305.422,82H291.06v9.445h23.807v0C314.867,86.229,310.638,82,305.422,82z"/>
	<path style="fill:#FFE473;" d="M46.823,410H219.86l-11.573-36.459l-6.161-19.431l-45.089-67.551l-93.496-37.242
		c0,0,1.466,8.42,2.788,21.734C69.714,305.108,72.183,371.171,46.823,410z"/>
	<path style="fill:#E5CD65;" d="M63.542,249.317c0,0,1.466,8.42,2.788,21.734c8.255,11.826,17.965,22.737,28.987,32.458
		l26.363,23.244c19.949,17.59,42.763,31.235,67.242,40.482c6.348,2.403,12.818,4.508,19.365,6.304l-6.161-19.431l-45.089-67.551
		L63.542,249.317z"/>
	<path style="fill:#FFE473;" d="M303.627,148.41v177.81c0,20.7-16.79,37.49-37.49,37.49c-26.6,0-52.74-4.85-77.22-14.1
		c-24.48-9.25-47.29-22.9-67.24-40.49l-26.36-23.25c-6.06-5.34-11.72-11.04-16.96-17.06c-28.91-33.17-45.1-75.88-45.1-120.4
		c0-5.26,0.3-10.46,0.89-15.56c3.56-31.12,17.69-59.02,38.7-80.03c24.47-24.46,58.26-39.59,95.59-39.59
		C243.097,13.23,303.627,73.75,303.627,148.41z"/>
	<path style="fill:#808080;" d="M168.44,13.226L168.44,13.226c74.66,0,135.184,60.524,135.184,135.184c0,0-270.368,52.605-270.368,0
		v0C33.256,73.75,93.78,13.226,168.44,13.226z"/>
	<path style="fill:#F98680;" d="M362.764,283.253h24.204c3.19,0,5.775-2.586,5.775-5.775V71.904c0-3.19-2.586-5.775-5.775-5.775
		h-24.204c-14.782,0-26.766,11.983-26.766,26.766v163.592C335.998,271.269,347.982,283.253,362.764,283.253z"/>
	<rect x="371.324" y="66.129" style="fill:#E57370;" width="6.893" height="217.124"/>
	<path style="fill:#F98680;" d="M207.449,196L207.449,196l0-48h0c-6.722,0-12.172,5.449-12.172,12.172v23.657
		C195.277,190.551,200.727,196,207.449,196z"/>
	<path style="fill:#E5CD65;" d="M147.883,251.803c0,10.482-10.643,17.731-20.325,13.715c-19.236-7.978-32.766-26.94-32.766-49.062
		c0-9.284,2.383-18.011,6.57-25.603c12.348-22.389,46.521-13.346,46.521,12.222V251.803z"/>
	<rect x="317.043" y="141.95" style="fill:#1E94A8;" width="18.955" height="74.959"/>
	<path style="fill:#808080;" d="M78.357,268.81c-28.91-33.17-45.1-75.88-45.1-120.4c0-5.26,0.3-10.46,0.89-15.56l0.23-0.22
		l75.9,54.12C110.277,186.75,121.437,241.62,78.357,268.81z"/>
	<rect x="317.043" y="216.909" style="fill:#E57370;" width="18.955" height="41.029"/>
	<rect x="147.883" y="173" style="fill:#808080;" width="28.394" height="52"/>
	<path style="fill:#26A3BF;" d="M316.847,148.41h-13.22c0-74.66-60.53-135.18-135.19-135.18c-37.33,0-71.12,15.13-95.59,39.59
		c-20.18,20.18-34.01,46.72-38.23,76.35c-0.08,0.61-0.15,1.22-0.18,1.83c-0.04,0.54-0.06,1.09-0.06,1.63c0,2,0.23,3.99,0.69,5.94
		c2.72,11.57,13.05,19.75,24.94,19.75h147.44v28.43H45.687c-7.85,0-14.96-3.18-20.1-8.33c-5.15-5.14-8.33-12.25-8.33-20.1
		l3.79-27.32l0.84-6.04c0.03-0.25,0.07-0.48,0.11-0.7C33.557,53.87,94.827,0,168.437,0C250.277,0,316.847,66.58,316.847,148.41z"/>
	<path style="fill:#1E94A8;" d="M60.007,158.32h-42.75l3.79-27.32h13.39c-0.04,0.54-0.06,1.09-0.06,1.63c0,2,0.23,3.99,0.69,5.94
		C37.787,150.14,48.117,158.32,60.007,158.32z"/>
	<path style="fill:#FFE473;" d="M147.883,236.803c0,10.482-10.643,17.731-20.325,13.715c-19.236-7.978-32.766-26.94-32.766-49.062
		c0-9.284,2.383-18.011,6.57-25.603c12.348-22.389,46.521-13.346,46.521,12.222V236.803z"/>
	<path style="fill:#F98680;" d="M258.454,257.936h58.589V91.445H275.02c-9.149,0-16.566,7.417-16.566,16.566V257.936z"/>
	<path style="fill:#F98680;" d="M225.214,257.936h40.824V110.932h-40.824c-9.811,0-17.765,7.954-17.765,17.765v111.474
		C207.449,249.983,215.403,257.936,225.214,257.936z"/>
	<path style="fill:#26A3BF;" d="M230.021,179.43c0,10.348,4.196,19.713,10.977,26.503c6.789,6.781,16.155,10.977,26.503,10.977
		h68.497V141.95h-68.497C246.805,141.95,230.021,158.734,230.021,179.43z"/>
	<path style="fill:#1E94A8;" d="M322.213,203.124v-47.388h-54.712c-13.065,0-23.694,10.629-23.694,23.694
		c0,6.324,2.466,12.277,6.945,16.761c4.473,4.467,10.425,6.933,16.749,6.933H322.213z"/>
	<rect x="317.043" y="91.443" style="fill:#E57370;" width="18.955" height="50.507"/>
	<circle style="fill:#FFE473;" cx="265.347" cy="179.43" r="8.616"/>
	<rect x="298.088" y="167.798" style="fill:#26A3BF;" width="8.616" height="23.263"/>
</g>
<g>
</g>
<g>
</g>
<g>
</g>
<g>
</g>
<g>
</g>
<g>
</g>
<g>
</g>
<g>
</g>
<g>
</g>
<g>
</g>
<g>
</g>
<g>
</g>
<g>
</g>
<g>
</g>
<g>
</g>
</svg>
